<svg xmlns="http://www.w3.org/2000/svg" width="40.986" height="40.977"><path d="M20.498 9.982a10.506 10.506 0 1010.505 10.506A10.489 10.489 0 0020.498 9.982zm0 17.336a6.83 6.83 0 116.83-6.83 6.843 6.843 0 01-6.83 6.83zM33.884 9.553a2.45 2.45 0 11-2.45-2.45 2.445 2.445 0 012.45 2.45zm6.958 2.487c-.155-3.283-.905-6.19-3.31-8.586s-5.3-3.145-8.586-3.31c-3.383-.192-13.523-.192-16.906 0-3.273.155-6.181.905-8.586 3.3S.309 8.744.144 12.03c-.192 3.383-.192 13.523 0 16.906.155 3.283.905 6.19 3.31 8.586s5.3 3.145 8.586 3.31c3.383.192 13.523.192 16.906 0 3.283-.155 6.19-.905 8.586-3.31s3.145-5.3 3.31-8.586c.192-3.383.192-13.514 0-16.9zm-4.367 20.527a6.915 6.915 0 01-3.9 3.9c-2.7 1.07-9.1.823-12.079.823s-9.39.238-12.079-.823a6.915 6.915 0 01-3.9-3.9c-1.07-2.7-.823-9.1-.823-12.079s-.238-9.39.823-12.079a6.915 6.915 0 013.9-3.9c2.7-1.07 9.1-.823 12.079-.823s9.39-.238 12.079.823a6.915 6.915 0 013.9 3.9c1.07 2.7.823 9.1.823 12.079s.243 9.387-.823 12.079z"/></svg>