<svg id="x-circle" xmlns="http://www.w3.org/2000/svg" width="24.442" height="24.442" viewBox="0 0 24.442 24.442">
  <path id="Path_9" data-name="Path 9" d="M12.221,22.915A10.694,10.694,0,1,0,1.528,12.221,10.694,10.694,0,0,0,12.221,22.915Zm0,1.528A12.221,12.221,0,1,0,0,12.221,12.221,12.221,0,0,0,12.221,24.442Z" fill-rule="evenodd"/>
  <path id="Path_10" data-name="Path 10" d="M4.724,4.724a.764.764,0,0,1,1.082,0L9.847,8.767l4.042-4.044a.765.765,0,1,1,1.082,1.082L10.927,9.847l4.044,4.042a.765.765,0,1,1-1.082,1.082L9.847,10.927,5.805,14.971a.765.765,0,1,1-1.082-1.082L8.767,9.847,4.724,5.805a.764.764,0,0,1,0-1.082Z" transform="translate(2.374 2.374)" fill-rule="evenodd"/>
</svg>
