<svg xmlns="http://www.w3.org/2000/svg" width="40.986" height="40.977" viewBox="0 0 40.986 40.977">
  <path id="instagram" d="M20.423,41.807A10.506,10.506,0,1,0,30.928,52.313,10.489,10.489,0,0,0,20.423,41.807Zm0,17.336a6.83,6.83,0,1,1,6.83-6.83,6.843,6.843,0,0,1-6.83,6.83ZM33.809,41.378a2.45,2.45,0,1,1-2.45-2.45A2.445,2.445,0,0,1,33.809,41.378Zm6.958,2.487c-.155-3.283-.905-6.19-3.31-8.586s-5.3-3.145-8.586-3.31c-3.383-.192-13.523-.192-16.906,0-3.273.155-6.181.905-8.586,3.3s-3.145,5.3-3.31,8.586c-.192,3.383-.192,13.523,0,16.906.155,3.283.905,6.19,3.31,8.586s5.3,3.145,8.586,3.31c3.383.192,13.523.192,16.906,0,3.283-.155,6.19-.905,8.586-3.31s3.145-5.3,3.31-8.586c.192-3.383.192-13.514,0-16.9ZM36.4,64.392a6.915,6.915,0,0,1-3.9,3.9c-2.7,1.07-9.1.823-12.079.823s-9.39.238-12.079-.823a6.915,6.915,0,0,1-3.9-3.9c-1.07-2.7-.823-9.1-.823-12.079s-.238-9.39.823-12.079a6.915,6.915,0,0,1,3.9-3.9c2.7-1.07,9.1-.823,12.079-.823s9.39-.238,12.079.823a6.915,6.915,0,0,1,3.9,3.9c1.07,2.7.823,9.1.823,12.079S37.466,61.7,36.4,64.392Z" transform="translate(0.075 -31.825)"/>
</svg>
