<svg id="search" xmlns="http://www.w3.org/2000/svg" width="26.443" height="26.442" viewBox="0 0 26.443 26.442">
  <path id="Path_7" data-name="Path 7" d="M10.633,10.633a1.653,1.653,0,0,1,2.339,0L19.334,17A1.653,1.653,0,0,1,17,19.335l-6.363-6.363a1.653,1.653,0,0,1,0-2.339Z" transform="translate(6.624 6.624)" fill-rule="evenodd"/>
  <path id="Path_8" data-name="Path 8" d="M10.742,19.832a9.09,9.09,0,1,0-9.09-9.09,9.09,9.09,0,0,0,9.09,9.09Zm10.742-9.09A10.742,10.742,0,1,1,10.742,0,10.742,10.742,0,0,1,21.485,10.742Z" transform="translate(0 0)" fill-rule="evenodd"/>
</svg>
