<svg xmlns="http://www.w3.org/2000/svg" width="54" height="54" viewBox="0 0 54 54">
  <g id="search" transform="translate(14 14)">
    <circle id="Ellipse_13" data-name="Ellipse 13" cx="27" cy="27" r="27" transform="translate(-14 -14)" fill="#128792"/>
    <path id="Path_7" data-name="Path 7" d="M10.633,10.633a1.653,1.653,0,0,1,2.339,0L19.334,17A1.653,1.653,0,0,1,17,19.335l-6.363-6.363a1.653,1.653,0,0,1,0-2.339Z" transform="translate(6.624 6.624)" fill="#fff" fill-rule="evenodd"/>
    <path id="Path_8" data-name="Path 8" d="M10.742,19.832a9.09,9.09,0,1,0-9.09-9.09,9.09,9.09,0,0,0,9.09,9.09Zm10.742-9.09A10.742,10.742,0,1,1,10.742,0,10.742,10.742,0,0,1,21.485,10.742Z" transform="translate(0 0)" fill="#fff" fill-rule="evenodd"/>
  </g>
</svg>
